<svg id="Layer_1" data-name="Layer 1" xmlns="http://www.w3.org/2000/svg" viewBox="0 0 640 540"><defs><style>.cls-1{fill:#f1ebe9;}</style></defs><title>Puig &amp;amp; Co</title><path id="logo" class="cls-1" d="M377.83,280.24l14.44,16.28a16.2,16.2,0,0,1-5.84,3.15,22.5,22.5,0,0,1-5.37.63,10.27,10.27,0,0,1-7.14-2.86,10.43,10.43,0,0,1-2.17-3,8.41,8.41,0,0,1-.8-3.7,10.45,10.45,0,0,1,1.59-5.69A15.56,15.56,0,0,1,377.83,280.24Zm.93-17.26,3.16,3.35a26.5,26.5,0,0,0,6.83-4.24,7.47,7.47,0,0,0,2.76-5.78,5.83,5.83,0,0,0-2.39-4.84,8.89,8.89,0,0,0-5.55-1.86,8.56,8.56,0,0,0-5.7,2,6.28,6.28,0,0,0-2.36,5,6.58,6.58,0,0,0,.72,3A16,16,0,0,0,378.76,263Zm-277.69-9.42a14,14,0,0,0-4.24-2.9,12.84,12.84,0,0,0-5.24-1.09H82.28l0,27.29h9.31a12.39,12.39,0,0,0,5.24-1.12,13.75,13.75,0,0,0,4.25-3,14.49,14.49,0,0,0,2.86-4.38,13.64,13.64,0,0,0,1-5.29,13.14,13.14,0,0,0-1-5.24A13.37,13.37,0,0,0,101.07,253.56Zm476.57-.19a23.92,23.92,0,0,0-18.92,0A24.92,24.92,0,0,0,551,258.6a24.51,24.51,0,0,0-5.22,7.7,24,24,0,0,0,0,18.73,24.47,24.47,0,0,0,5.19,7.76,25,25,0,0,0,7.74,5.27,23.31,23.31,0,0,0,9.5,2,23,23,0,0,0,9.42-1.94,24.92,24.92,0,0,0,7.75-5.25,24.35,24.35,0,0,0,5.22-7.74,24,24,0,0,0,0-18.73,24.74,24.74,0,0,0-5.19-7.72A25.34,25.34,0,0,0,577.64,253.37ZM530.9,101.09,206,25A112.55,112.55,0,0,0,70.74,109L25.16,303.65A112.56,112.56,0,0,0,109.1,438.91L434,515A112.55,112.55,0,0,0,569.26,431l31.93-136.37a36.76,36.76,0,0,1-6,7.66,39.42,39.42,0,0,1-12.2,8,39,39,0,0,1-29.65,0,39.38,39.38,0,0,1-12.23-8,37.56,37.56,0,0,1-8.24-11.89,35.78,35.78,0,0,1-3-14.69,36.18,36.18,0,0,1,3-14.72A37.36,37.36,0,0,1,541.15,249a38.93,38.93,0,0,1,27.1-10.8,38.22,38.22,0,0,1,35.22,22.86,35.41,35.41,0,0,1,2.86,11.63l8.51-36.36A112.56,112.56,0,0,0,530.9,101.09ZM117,272.87a24.5,24.5,0,0,1-5.31,7.77,24.26,24.26,0,0,1-7.89,5.14,25,25,0,0,1-9.61,1.83h-12l0,23.58-14,0,.1-72.19,26,0a25.14,25.14,0,0,1,9.59,1.87,24.34,24.34,0,0,1,7.87,5.12,24.05,24.05,0,0,1,5.29,7.68,23.53,23.53,0,0,1,1.93,9.58A23.78,23.78,0,0,1,117,272.87Zm77.86,5.4a40.34,40.34,0,0,1-2.19,13.46,32.36,32.36,0,0,1-6.29,10.88,29.26,29.26,0,0,1-10,7.3,35.49,35.49,0,0,1-26.89,0,30,30,0,0,1-10.16-7.2A31.62,31.62,0,0,1,132.83,292a38.5,38.5,0,0,1-2.24-13.33l.06-39.67,14,0-.05,39.76a25.55,25.55,0,0,0,1.16,7.82,18.7,18.7,0,0,0,3.43,6.37,16.05,16.05,0,0,0,5.64,4.3,18,18,0,0,0,7.73,1.59,19.66,19.66,0,0,0,8-1.48,15.06,15.06,0,0,0,5.61-4.14,18.29,18.29,0,0,0,3.35-6.28,26.33,26.33,0,0,0,1.14-7.95l.06-39.94,14.19,0Zm29.33,33.11-14,0,.1-72.19,14,0Zm83.71-13.17a38.91,38.91,0,0,1-6.69,6.54,39.69,39.69,0,0,1-7.56,4.56,37.58,37.58,0,0,1-8.05,2.65,40.09,40.09,0,0,1-8.18.85,39.53,39.53,0,0,1-15.09-2.91,38.73,38.73,0,0,1-12.28-8,38.09,38.09,0,0,1-8.3-11.94,37,37,0,0,1,0-29.41,37,37,0,0,1,8.33-11.87,39.77,39.77,0,0,1,12.35-8,39,39,0,0,1,15.1-2.92,37.81,37.81,0,0,1,16.94,3.8,40.09,40.09,0,0,1,13,10.07l-9.49,9.66a24.54,24.54,0,0,0-9.1-7.92A26,26,0,0,0,277.55,251a24.41,24.41,0,0,0-9.66,1.89,25.12,25.12,0,0,0-7.9,5.2,24.52,24.52,0,0,0-5.34,7.7,23.91,23.91,0,0,0,0,18.87,24.92,24.92,0,0,0,13.19,13,24.7,24.7,0,0,0,9.65,1.92,23.55,23.55,0,0,0,9.2-1.81,28.17,28.17,0,0,0,7.76-4.81v-7l-14.82,0,0-11.93,28.29,0ZM406.71,313l-6.14-7a39.79,39.79,0,0,1-4.07,3.11,21.37,21.37,0,0,1-4.3,2.16,24.76,24.76,0,0,1-5.2,1.26,48.73,48.73,0,0,1-6.68.4,24.32,24.32,0,0,1-16.63-6.53,21.68,21.68,0,0,1-5-7.06,21,21,0,0,1-1.79-8.67,17,17,0,0,1,3.4-10.43,35.72,35.72,0,0,1,9.91-8.62,41,41,0,0,1-5.77-8.36,15.68,15.68,0,0,1-1.71-6.83,16.31,16.31,0,0,1,1.59-7.18,17.93,17.93,0,0,1,4.35-5.73,20,20,0,0,1,6.47-3.79,23,23,0,0,1,7.95-1.34,22.19,22.19,0,0,1,8.09,1.46,19.8,19.8,0,0,1,6.5,4,19.11,19.11,0,0,1,4.33,6,17.77,17.77,0,0,1,1.57,7.5,13.71,13.71,0,0,1-3.45,9.3q-3.44,4-10.67,8.21l10,11.58a12.45,12.45,0,0,0,.82-2.66c.18-.94.33-1.86.46-2.76l12.47,0a40.8,40.8,0,0,1-1.78,8.72,35.35,35.35,0,0,1-2.94,6.81l6.86,7.69Zm104.68-3.73a37.43,37.43,0,0,1-17,3.86,39.23,39.23,0,0,1-27.35-11,37.48,37.48,0,0,1-8.21-11.89,37.33,37.33,0,0,1,0-29.37A37.65,37.65,0,0,1,479.35,241a39.37,39.37,0,0,1,15.1-2.87,37.47,37.47,0,0,1,17,3.88,39.45,39.45,0,0,1,12.87,10.07L514.66,262a25.31,25.31,0,0,0-8.62-7.74,24.42,24.42,0,0,0-21.15-1,25.39,25.39,0,0,0-7.82,5.24,24.69,24.69,0,0,0-5.3,7.69,23.33,23.33,0,0,0,0,18.65,24.91,24.91,0,0,0,5.28,7.7,25.58,25.58,0,0,0,7.81,5.26,23.76,23.76,0,0,0,9.53,2,23,23,0,0,0,11.85-3,27,27,0,0,0,8.6-8l9.74,10.05A40.21,40.21,0,0,1,511.39,309.25Z"/></svg>